<svg width="40" height="61" viewBox="0 0 40 61" fill="none" xmlns="http://www.w3.org/2000/svg">
<g filter="url(#filter0_d_3_13)">
<path d="M9.22431 52.1667H4.3834V34.7121H9.59931C11.2357 34.7121 12.6362 35.0587 13.801 35.7519C14.9658 36.4451 15.8578 37.4394 16.4772 38.7348C17.1022 40.0246 17.4118 41.5729 17.4061 43.3797C17.4005 45.2263 17.0766 46.8059 16.4345 48.1184C15.7925 49.4252 14.8635 50.428 13.6476 51.1269C12.4317 51.8201 10.9573 52.1667 9.22431 52.1667ZM5.44875 51.178H9.1817C10.7385 51.178 12.051 50.8684 13.1192 50.2491C14.1874 49.6241 14.9942 48.7292 15.5397 47.5644C16.0908 46.3996 16.3635 45.0047 16.3578 43.3797C16.3578 41.7775 16.0936 40.4053 15.5652 39.2633C15.0368 38.1155 14.2669 37.2348 13.2556 36.6212C12.2499 36.0076 11.0169 35.7008 9.5567 35.7008H5.44875V51.178Z" fill="url(#paint0_linear_3_13)"/>
<path d="M33.7932 40.1667C33.6625 39.5758 33.4409 39.0047 33.1284 38.4536C32.8159 37.8968 32.4154 37.3968 31.9267 36.9536C31.4438 36.5047 30.8756 36.1496 30.2222 35.8883C29.5745 35.6269 28.8472 35.4962 28.0404 35.4962C26.8074 35.4962 25.7137 35.8201 24.7591 36.4678C23.8103 37.1098 23.0659 38.0275 22.5262 39.2206C21.9921 40.4081 21.725 41.8144 21.725 43.4394C21.725 45.0473 21.9921 46.4479 22.5262 47.6411C23.0603 48.8343 23.8074 49.7576 24.7676 50.411C25.7335 51.0587 26.8557 51.3826 28.1341 51.3826C29.2762 51.3826 30.2875 51.1184 31.1682 50.59C32.0546 50.0616 32.7449 49.3059 33.2392 48.3229C33.7335 47.34 33.975 46.1638 33.9637 44.7945L34.3387 44.9735H28.4068V43.9848H35.0034V44.9735C35.0034 46.5133 34.708 47.84 34.1171 48.9536C33.5318 50.0616 32.7193 50.9138 31.6796 51.5104C30.6455 52.107 29.4637 52.4053 28.1341 52.4053C26.6341 52.4053 25.3245 52.0331 24.2051 51.2888C23.0858 50.5445 22.2165 49.5019 21.5972 48.161C20.9835 46.8144 20.6767 45.2405 20.6767 43.4394C20.6767 42.0871 20.8529 40.8598 21.2051 39.7576C21.5574 38.6553 22.0603 37.7121 22.7137 36.928C23.3671 36.1383 24.1455 35.5331 25.0489 35.1127C25.9523 34.6866 26.9495 34.4735 28.0404 34.4735C29.029 34.4735 29.9182 34.6383 30.708 34.9678C31.4978 35.2917 32.1796 35.7292 32.7534 36.2803C33.333 36.8258 33.8017 37.4366 34.1597 38.1127C34.5176 38.7831 34.7591 39.4678 34.8841 40.1667H33.7932Z" fill="url(#paint1_linear_3_13)"/>
<path d="M34 4.16667C34 3.50363 33.7364 2.86793 33.2676 2.39909C32.7987 1.93025 32.163 1.66667 31.5 1.66667H8.16667C7.50362 1.66667 6.86793 1.93025 6.39909 2.39909C5.93025 2.86793 5.66667 3.50363 5.66667 4.16667V17.5C5.66667 18.163 5.93025 18.7987 6.39909 19.2676C6.86793 19.7364 7.50363 20 8.16667 20H13.1667L13.2489 20.0041C13.4397 20.023 13.6191 20.1074 13.7559 20.2441L19.8333 26.3216L25.9108 20.2441L25.9718 20.1888C26.1201 20.0673 26.3066 20 26.5 20H31.5C32.163 20 32.7987 19.7364 33.2676 19.2676C33.7364 18.7987 34 18.163 34 17.5V4.16667ZM18.1667 13.3333C18.6269 13.3333 19 13.7064 19 14.1667C19 14.6269 18.6269 15 18.1667 15H11.5C11.0398 15 10.6667 14.6269 10.6667 14.1667C10.6667 13.7064 11.0398 13.3333 11.5 13.3333H18.1667ZM28.1667 6.66667C28.6269 6.66667 29 7.03976 29 7.5C29 7.96024 28.6269 8.33333 28.1667 8.33333H11.5C11.0398 8.33333 10.6667 7.96024 10.6667 7.5C10.6667 7.03976 11.0398 6.66667 11.5 6.66667H28.1667ZM35.6667 17.5C35.6667 18.6051 35.2274 19.6646 34.446 20.446C33.6646 21.2274 32.6051 21.6667 31.5 21.6667H26.8451L20.4225 28.0892C20.0971 28.4146 19.5696 28.4146 19.2441 28.0892L12.8216 21.6667H8.16667C7.0616 21.6667 6.0021 21.2274 5.2207 20.446C4.4393 19.6646 4 18.6051 4 17.5V4.16667C4 3.0616 4.4393 2.0021 5.2207 1.2207C6.0021 0.439302 7.0616 0 8.16667 0H31.5C32.6051 0 33.6646 0.439302 34.446 1.2207C35.2274 2.0021 35.6667 3.0616 35.6667 4.16667V17.5Z" fill="url(#paint2_linear_3_13)"/>
</g>
<defs>
<filter id="filter0_d_3_13" x="0" y="0" width="39.6667" height="60.4053" filterUnits="userSpaceOnUse" color-interpolation-filters="sRGB">
<feFlood flood-opacity="0" result="BackgroundImageFix"/>
<feColorMatrix in="SourceAlpha" type="matrix" values="0 0 0 0 0 0 0 0 0 0 0 0 0 0 0 0 0 0 127 0" result="hardAlpha"/>
<feOffset dy="4"/>
<feGaussianBlur stdDeviation="2"/>
<feComposite in2="hardAlpha" operator="out"/>
<feColorMatrix type="matrix" values="0 0 0 0 0 0 0 0 0 0 0 0 0 0 0 0 0 0 0.4 0"/>
<feBlend mode="normal" in2="BackgroundImageFix" result="effect1_dropShadow_3_13"/>
<feBlend mode="normal" in="SourceGraphic" in2="effect1_dropShadow_3_13" result="shape"/>
</filter>
<linearGradient id="paint0_linear_3_13" x1="3.83334" y1="-8.33337" x2="47.3333" y2="76.1666" gradientUnits="userSpaceOnUse">
<stop stop-color="#9C57F4"/>
<stop offset="1" stop-color="#FAFAFA"/>
</linearGradient>
<linearGradient id="paint1_linear_3_13" x1="3.83334" y1="-8.33337" x2="47.3333" y2="76.1666" gradientUnits="userSpaceOnUse">
<stop stop-color="#9C57F4"/>
<stop offset="1" stop-color="#FAFAFA"/>
</linearGradient>
<linearGradient id="paint2_linear_3_13" x1="3.83334" y1="-8.33337" x2="47.3333" y2="76.1666" gradientUnits="userSpaceOnUse">
<stop stop-color="#9C57F4"/>
<stop offset="1" stop-color="#FAFAFA"/>
</linearGradient>
</defs>
</svg>
