<svg width="199" height="42" viewBox="0 0 199 42" fill="none" xmlns="http://www.w3.org/2000/svg">
<g filter="url(#filter0_d_2_9)">
<path d="M192.655 12C192.437 11.0151 192.067 10.0634 191.547 9.14488C191.026 8.21685 190.358 7.38351 189.544 6.64488C188.739 5.89677 187.792 5.30491 186.703 4.86931C185.623 4.4337 184.411 4.2159 183.066 4.2159C181.012 4.2159 179.189 4.75567 177.598 5.83522C176.016 6.90529 174.776 8.43465 173.876 10.4233C172.986 12.4025 172.541 14.7462 172.541 17.4545C172.541 20.1345 172.986 22.4687 173.876 24.4574C174.766 26.446 176.012 27.9848 177.612 29.0739C179.222 30.1534 181.092 30.6932 183.223 30.6932C185.126 30.6932 186.812 30.2528 188.28 29.3722C189.757 28.4915 190.907 27.232 191.731 25.5937C192.555 23.9555 192.958 21.9953 192.939 19.7131L193.564 20.0114H183.677V18.3636H194.672V20.0114C194.672 22.5776 194.179 24.7888 193.194 26.6449C192.219 28.4915 190.865 29.9119 189.132 30.9062C187.408 31.9006 185.439 32.3977 183.223 32.3977C180.723 32.3977 178.54 31.7775 176.674 30.5369C174.809 29.2964 173.36 27.5587 172.328 25.3239C171.305 23.0795 170.794 20.4564 170.794 17.4545C170.794 15.2007 171.087 13.1553 171.674 11.3182C172.262 9.48105 173.1 7.90908 174.189 6.60226C175.278 5.28597 176.575 4.27745 178.081 3.57669C179.586 2.86647 181.248 2.51135 183.066 2.51135C184.714 2.51135 186.196 2.78597 187.512 3.33522C188.829 3.87499 189.965 4.60416 190.922 5.52272C191.887 6.43181 192.669 7.4498 193.265 8.5767C193.862 9.69412 194.264 10.8352 194.473 12H192.655Z" fill="url(#paint0_linear_2_9)"/>
<path d="M165.332 17.4545C165.332 20.4564 164.811 23.0795 163.77 25.3239C162.728 27.5587 161.279 29.2964 159.423 30.5369C157.576 31.7775 155.446 32.3977 153.031 32.3977C150.607 32.3977 148.467 31.7775 146.61 30.5369C144.764 29.2869 143.32 27.5445 142.278 25.3096C141.236 23.0653 140.716 20.447 140.716 17.4545C140.716 14.4526 141.236 11.8343 142.278 9.59942C143.329 7.36457 144.778 5.62688 146.625 4.38635C148.471 3.13635 150.607 2.51135 153.031 2.51135C155.446 2.51135 157.576 3.13162 159.423 4.37215C161.279 5.61268 162.728 7.3551 163.77 9.59942C164.811 11.8343 165.332 14.4526 165.332 17.4545ZM163.599 17.4545C163.599 14.7557 163.145 12.4167 162.235 10.4375C161.336 8.45832 160.091 6.92897 158.5 5.84942C156.909 4.76041 155.086 4.2159 153.031 4.2159C150.976 4.2159 149.153 4.75567 147.562 5.83522C145.971 6.90529 144.721 8.43465 143.812 10.4233C142.913 12.4025 142.463 14.7462 142.463 17.4545C142.463 20.1345 142.908 22.4687 143.798 24.4574C144.698 26.4365 145.943 27.9706 147.534 29.0597C149.125 30.1487 150.957 30.6932 153.031 30.6932C155.086 30.6932 156.909 30.1534 158.5 29.0739C160.091 27.9848 161.336 26.4507 162.235 24.4716C163.145 22.4924 163.599 20.1534 163.599 17.4545Z" fill="url(#paint1_linear_2_9)"/>
<path d="M120.826 32V2.90906H122.601V30.3522H136.806V32H120.826Z" fill="url(#paint2_linear_2_9)"/>
<path d="M94.2347 32H92.3597L102.857 2.90906H104.902L115.4 32H113.525L103.951 5.19599H103.809L94.2347 32ZM96.891 21.0483H110.868V22.696H96.891V21.0483Z" fill="url(#paint3_linear_2_9)"/>
<path d="M86.9372 2.90906V32H85.1616V2.90906H86.9372Z" fill="url(#paint4_linear_2_9)"/>
<path d="M64.597 32H56.5288V2.90906H65.222C67.9493 2.90906 70.2835 3.48671 72.2248 4.64201C74.1661 5.79732 75.6529 7.45451 76.6851 9.6136C77.7267 11.7632 78.2428 14.3437 78.2334 17.3551C78.2239 20.4327 77.6841 23.0653 76.614 25.2528C75.544 27.4308 73.9957 29.1022 71.9691 30.267C69.9426 31.4223 67.4852 32 64.597 32ZM58.3044 30.3522H64.526C67.1207 30.3522 69.3082 29.8361 71.0885 28.8039C72.8688 27.7623 74.2135 26.2708 75.1226 24.3295C76.0411 22.3882 76.4957 20.0634 76.4862 17.3551C76.4862 14.6846 76.0459 12.3977 75.1652 10.4943C74.2845 8.58141 73.0014 7.1136 71.3157 6.09088C69.6396 5.06815 67.5847 4.55679 65.151 4.55679H58.3044V30.3522Z" fill="url(#paint5_linear_2_9)"/>
<path d="M40 5C40 4.20435 39.6837 3.44152 39.1211 2.87891C38.5585 2.3163 37.7957 2 37 2H9C8.20435 2 7.44152 2.3163 6.87891 2.87891C6.3163 3.44152 6 4.20435 6 5V21C6 21.7957 6.3163 22.5585 6.87891 23.1211C7.44152 23.6837 8.20435 24 9 24H15L15.0986 24.0049C15.3276 24.0276 15.5429 24.1288 15.707 24.293L23 31.5859L30.293 24.293L30.3662 24.2266C30.5442 24.0807 30.7679 24 31 24H37C37.7957 24 38.5585 23.6837 39.1211 23.1211C39.6837 22.5585 40 21.7956 40 21V5ZM21 16C21.5523 16 22 16.4477 22 17C22 17.5523 21.5523 18 21 18H13C12.4477 18 12 17.5523 12 17C12 16.4477 12.4477 16 13 16H21ZM33 8C33.5523 8 34 8.44772 34 9C34 9.55228 33.5523 10 33 10H13C12.4477 10 12 9.55228 12 9C12 8.44772 12.4477 8 13 8H33ZM42 21C42 22.3261 41.4728 23.5975 40.5352 24.5352C39.5975 25.4728 38.3261 26 37 26H31.4141L23.707 33.707C23.3165 34.0976 22.6835 34.0976 22.293 33.707L14.5859 26H9C7.67392 26 6.40253 25.4728 5.46484 24.5352C4.52716 23.5975 4 22.3261 4 21V5C4 3.67392 4.52716 2.40253 5.46484 1.46484C6.40253 0.527162 7.67392 0 9 0H37C38.3261 0 39.5975 0.527162 40.5352 1.46484C41.4728 2.40253 42 3.67392 42 5V21Z" fill="url(#paint6_linear_2_9)"/>
</g>
<defs>
<filter id="filter0_d_2_9" x="0" y="0" width="198.672" height="41.9999" filterUnits="userSpaceOnUse" color-interpolation-filters="sRGB">
<feFlood flood-opacity="0" result="BackgroundImageFix"/>
<feColorMatrix in="SourceAlpha" type="matrix" values="0 0 0 0 0 0 0 0 0 0 0 0 0 0 0 0 0 0 127 0" result="hardAlpha"/>
<feOffset dy="4"/>
<feGaussianBlur stdDeviation="2"/>
<feComposite in2="hardAlpha" operator="out"/>
<feColorMatrix type="matrix" values="0 0 0 0 0 0 0 0 0 0 0 0 0 0 0 0 0 0 0.45 0"/>
<feBlend mode="normal" in2="BackgroundImageFix" result="effect1_dropShadow_2_9"/>
<feBlend mode="normal" in="SourceGraphic" in2="effect1_dropShadow_2_9" result="shape"/>
</filter>
<linearGradient id="paint0_linear_2_9" x1="29.5" y1="-4" x2="90.5" y2="80.5" gradientUnits="userSpaceOnUse">
<stop stop-color="#9C57F4"/>
<stop offset="1" stop-color="white"/>
</linearGradient>
<linearGradient id="paint1_linear_2_9" x1="29.5" y1="-4" x2="90.5" y2="80.5" gradientUnits="userSpaceOnUse">
<stop stop-color="#9C57F4"/>
<stop offset="1" stop-color="white"/>
</linearGradient>
<linearGradient id="paint2_linear_2_9" x1="29.5" y1="-4" x2="90.5" y2="80.5" gradientUnits="userSpaceOnUse">
<stop stop-color="#9C57F4"/>
<stop offset="1" stop-color="white"/>
</linearGradient>
<linearGradient id="paint3_linear_2_9" x1="29.5" y1="-4" x2="90.5" y2="80.5" gradientUnits="userSpaceOnUse">
<stop stop-color="#9C57F4"/>
<stop offset="1" stop-color="white"/>
</linearGradient>
<linearGradient id="paint4_linear_2_9" x1="29.5" y1="-4" x2="90.5" y2="80.5" gradientUnits="userSpaceOnUse">
<stop stop-color="#9C57F4"/>
<stop offset="1" stop-color="white"/>
</linearGradient>
<linearGradient id="paint5_linear_2_9" x1="29.5" y1="-4" x2="90.5" y2="80.5" gradientUnits="userSpaceOnUse">
<stop stop-color="#9C57F4"/>
<stop offset="1" stop-color="white"/>
</linearGradient>
<linearGradient id="paint6_linear_2_9" x1="29.5" y1="-4" x2="90.5" y2="80.5" gradientUnits="userSpaceOnUse">
<stop stop-color="#9C57F4"/>
<stop offset="1" stop-color="white"/>
</linearGradient>
</defs>
</svg>
