<svg width="512" height="512" viewBox="0 0 512 512" fill="none" xmlns="http://www.w3.org/2000/svg">
<rect width="512" height="512" fill="url(#paint0_linear_57_19)"/>
<g filter="url(#filter0_d_57_19)">
<path d="M429.542 133.5C429.542 125.378 426.313 117.591 420.569 111.847C414.826 106.104 407.039 102.875 398.917 102.875H113.083C104.961 102.875 97.1738 106.104 91.4305 111.847C85.6872 117.591 82.4583 125.378 82.4583 133.5V296.833C82.4583 304.956 85.6872 312.743 91.4305 318.486C97.1738 324.229 104.961 327.458 113.083 327.458H174.333L175.34 327.508C177.678 327.74 179.875 328.773 181.551 330.449L256 404.898L330.449 330.449L331.197 329.771C333.013 328.282 335.297 327.458 337.667 327.458H398.917C407.039 327.458 414.826 324.229 420.569 318.486C426.313 312.743 429.542 304.956 429.542 296.833V133.5ZM235.583 245.792C241.221 245.792 245.792 250.362 245.792 256C245.792 261.638 241.221 266.208 235.583 266.208H153.917C148.279 266.208 143.708 261.638 143.708 256C143.708 250.362 148.279 245.792 153.917 245.792H235.583ZM358.083 164.125C363.721 164.125 368.292 168.695 368.292 174.333C368.292 179.971 363.721 184.542 358.083 184.542H153.917C148.279 184.542 143.708 179.971 143.708 174.333C143.708 168.695 148.279 164.125 153.917 164.125H358.083ZM449.958 296.833C449.958 310.37 444.577 323.349 435.005 332.921C425.432 342.494 412.454 347.875 398.917 347.875H341.894L263.218 426.551C259.231 430.538 252.769 430.538 248.782 426.551L170.106 347.875H113.083C99.5462 347.875 86.5674 342.494 76.9952 332.921C67.4231 323.349 62.0416 310.37 62.0416 296.833V133.5C62.0416 119.963 67.4231 106.984 76.9952 97.412C86.5674 87.8398 99.5462 82.4584 113.083 82.4584H398.917C412.454 82.4584 425.432 87.8398 435.005 97.412C444.577 106.984 449.958 119.963 449.958 133.5V296.833Z" fill="white"/>
</g>
<defs>
<filter id="filter0_d_57_19" x="50.0416" y="74.4584" width="411.917" height="371.083" filterUnits="userSpaceOnUse" color-interpolation-filters="sRGB">
<feFlood flood-opacity="0" result="BackgroundImageFix"/>
<feColorMatrix in="SourceAlpha" type="matrix" values="0 0 0 0 0 0 0 0 0 0 0 0 0 0 0 0 0 0 127 0" result="hardAlpha"/>
<feOffset dy="4"/>
<feGaussianBlur stdDeviation="6"/>
<feComposite in2="hardAlpha" operator="out"/>
<feColorMatrix type="matrix" values="0 0 0 0 0 0 0 0 0 0 0 0 0 0 0 0 0 0 0.1 0"/>
<feBlend mode="normal" in2="BackgroundImageFix" result="effect1_dropShadow_57_19"/>
<feBlend mode="normal" in="SourceGraphic" in2="effect1_dropShadow_57_19" result="shape"/>
</filter>
<linearGradient id="paint0_linear_57_19" x1="175" y1="-28.5" x2="850" y2="840.5" gradientUnits="userSpaceOnUse">
<stop stop-color="#2E0267"/>
<stop offset="1" stop-color="#9C57F4"/>
</linearGradient>
</defs>
</svg>
